<svg aria-hidden="true" style="position: absolute; width: 0; height: 0; overflow: hidden;" version="1.1" xmlns="http://www.w3.org/2000/svg" xmlns:xlink="http://www.w3.org/1999/xlink">
<defs>
<symbol id="icon-green-circle" viewBox="0 0 32 32">
<path fill="#82c14a" style="fill: var(--color1, #82c14a)" d="M16 0c-8.788 0-16 7.212-16 16s7.212 16 16 16 16-7.212 16-16-7.212-16-16-16z"></path>
</symbol>
<symbol id="icon-pink-circle" viewBox="0 0 32 32">
<path fill="#fd3c85" style="fill: var(--color2, #fd3c85)" d="M16 0c-8.788 0-16 7.212-16 16s7.212 16 16 16 16-7.212 16-16-7.212-16-16-16z"></path>
</symbol>
<symbol id="icon-yellow-circle" viewBox="0 0 32 32">
<path fill="#fece30" style="fill: var(--color3, #fece30)" d="M16 0c-8.788 0-16 7.212-16 16s7.212 16 16 16 16-7.212 16-16-7.212-16-16-16z"></path>
</symbol>
<symbol id="icon-radio-unchecked" viewBox="0 0 32 32">
<path d="M16 0c-8.837 0-16 7.163-16 16s7.163 16 16 16 16-7.163 16-16-7.163-16-16-16zM16 28c-6.627 0-12-5.373-12-12s5.373-12 12-12c6.627 0 12 5.373 12 12s-5.373 12-12 12z"></path>
</symbol>
</defs>
</svg>
